<svg id="Layer_1" data-name="Layer 1" xmlns="http://www.w3.org/2000/svg" viewBox="0 0 1366 768"><defs><style>.cls-1{fill:#fffe73;}.cls-2{fill:#ffe734;}.cls-3{fill:#fff;}.cls-4{fill:#2e91ff;}.cls-5,.cls-6{fill:none;stroke-width:5px;}.cls-5,.cls-6,.cls-7,.cls-8{stroke:#000;stroke-miterlimit:10;}.cls-6,.cls-7,.cls-8{fill-rule:evenodd;}.cls-7{fill:#731200;stroke-width:7px;}.cls-8{fill:#ff5caf;stroke-width:3px;}.cls-9{fill:#e7da00;}</style></defs><rect class="cls-1" x="0.5" y="0.5" width="1365" height="767"/><path class="cls-2" d="M1365,1V767H1V1H1365m1-1H0V768H1366V0Z"/><circle class="cls-3" cx="568.5" cy="191.5" r="112.5"/><path d="M568.5,81a110.48,110.48,0,1,1-78.14,32.36A109.79,109.79,0,0,1,568.5,81m0-4A114.5,114.5,0,1,0,683,191.5,114.5,114.5,0,0,0,568.5,77Z"/><circle class="cls-3" cx="831.5" cy="191.5" r="112.5"/><path d="M831.5,81a110.48,110.48,0,1,1-78.14,32.36A109.79,109.79,0,0,1,831.5,81m0-4A114.5,114.5,0,1,0,946,191.5,114.5,114.5,0,0,0,831.5,77Z"/><circle class="cls-4" cx="569" cy="191" r="56"/><path d="M569,137a54,54,0,1,1-54,54,54.06,54.06,0,0,1,54-54m0-4a58,58,0,1,0,58,58,58,58,0,0,0-58-58Z"/><circle class="cls-4" cx="832" cy="192" r="56"/><path d="M832,138a54,54,0,1,1-54,54,54.06,54.06,0,0,1,54-54m0-4a58,58,0,1,0,58,58,58,58,0,0,0-58-58Z"/><circle cx="569" cy="192" r="33"/><path d="M569,161a31,31,0,1,1-31,31,31,31,0,0,1,31-31m0-4a35,35,0,1,0,35,35,35,35,0,0,0-35-35Z"/><circle cx="832" cy="192" r="33"/><path d="M832,161a31,31,0,1,1-31,31,31,31,0,0,1,31-31m0-4a35,35,0,1,0,35,35,35,35,0,0,0-35-35Z"/><line class="cls-5" x1="495" y1="107" x2="457" y2="54"/><line x1="495" y1="107" x2="457" y2="54"/><line class="cls-5" x1="563.16" y1="82.14" x2="562.14" y2="16.93"/><line x1="563.16" y1="82.14" x2="562.14" y2="16.93"/><line class="cls-5" x1="626.52" y1="92.11" x2="642.78" y2="28.96"/><line x1="626.52" y1="92.11" x2="642.78" y2="28.96"/><line class="cls-5" x1="746.65" y1="118.04" x2="708.65" y2="65.04"/><line x1="746.65" y1="118.04" x2="708.65" y2="65.04"/><line class="cls-5" x1="832.16" y1="82.14" x2="831.14" y2="16.93"/><line x1="832.16" y1="82.14" x2="831.14" y2="16.93"/><line class="cls-5" x1="902.52" y1="108.11" x2="918.78" y2="44.96"/><line x1="902.52" y1="108.11" x2="918.78" y2="44.96"/><path class="cls-6" d="M657.73,333.69c4.17-18.28,8.35-36.69,9.17-55.43.34-7.78.13-15.76,2.68-23.12a32,32,0,0,1,58.89-3.71c4.33,8.75,4.44,18.91,4.46,28.67q.08,33.15.13,66.29"/><path class="cls-7" d="M544.08,396.94c17.92,6.27,37.22,7.14,56.19,7.95,50.23,2.14,102,4.05,149.23-13.22,22.24-8.14,42.89-20.36,65.46-27.55,11.22-3.57,22.9-5.89,33.59-10.83,12.22-5.64,22.68-14.49,34.59-20.74s26.58-9.74,38.69-3.89c18.53,8.93,21.69,33.65,21.24,54.21-.26,12.13-1,24.67-6.45,35.53-5.23,10.47-14.32,18.42-23.19,26.07-39.22,33.87-80.1,68.66-129.87,83.1-47.74,13.84-98.71,7.5-148,1-22.12-2.89-44.48-5.85-65.32-13.8-46.07-17.59-79.84-57.63-105.82-99.55-9.82-15.85-28-63.6,3.37-60.68C493.14,356.94,519.52,388.34,544.08,396.94Z"/><rect class="cls-3" x="604" y="408" width="61" height="61"/><rect class="cls-3" x="703" y="400" width="61" height="61" transform="translate(-77.15 173.2) rotate(-12.8)"/><path class="cls-8" d="M633.36,490.48c16.19-2.89,32.17,9.26,48.43,6.73,5.48-.86,10.54-3.34,15.73-5.31a88.69,88.69,0,0,1,59.32-1.09c13.5,4.57,27,14.18,29.16,28.27-20.67,9.51-44.24,10-67,9.3a816.61,816.61,0,0,1-83.54-6.75c-7.19-1-28.47-.1-27.62-10.94C608.57,501.53,625.65,491.86,633.36,490.48Z"/><circle class="cls-9" cx="237" cy="77" r="47"/><circle class="cls-9" cx="111" cy="384" r="47"/><circle class="cls-9" cx="292.5" cy="473.5" r="33.5"/><ellipse class="cls-9" cx="384.5" cy="686.5" rx="33.5" ry="46.5"/><circle class="cls-9" cx="151" cy="593" r="20"/><circle class="cls-9" cx="1095" cy="92" r="47"/><circle class="cls-9" cx="1305" cy="353" r="47"/><circle class="cls-9" cx="1081.5" cy="561.5" r="33.5"/><circle class="cls-9" cx="887" cy="615" r="20"/><ellipse class="cls-9" cx="1291.5" cy="681.5" rx="33.5" ry="46.5"/><circle class="cls-9" cx="371.5" cy="267.5" r="33.5"/><circle class="cls-9" cx="1025" cy="326" r="47"/><circle class="cls-9" cx="569.5" cy="635.5" r="33.5"/></svg>